<svg width="24" height="24" viewBox="0 0 24 24" fill="none" xmlns="http://www.w3.org/2000/svg">
<path fill-rule="evenodd" clip-rule="evenodd" d="M20.9501 7.56055H3V18.8374C3 20.9505 4.69652 22.6635 6.78947 22.6635H17.1606C19.2535 22.6635 20.9501 20.9505 20.9501 18.8374V7.56055ZM6.78947 21.2287C5.48152 21.2287 4.42105 20.1582 4.42105 18.8374V8.99533H19.529V18.8374C19.529 20.1582 18.4687 21.2287 17.1606 21.2287H6.78947Z" fill="#262626"/>
<path d="M8.6967 12.5357V6.61293C8.6967 4.78482 10.1645 3.30285 11.9751 3.30285C13.7857 3.30285 15.2535 4.78482 15.2535 6.61293V12.5357C15.2535 12.9318 15.5716 13.253 15.964 13.253C16.3564 13.253 16.6745 12.9318 16.6745 12.5357V6.61293C16.6745 3.99242 14.5705 1.86807 11.9751 1.86807C9.37967 1.86807 7.27565 3.99242 7.27565 6.61293V12.5357C7.27565 12.9318 7.59377 13.253 7.98618 13.253C8.3786 13.253 8.6967 12.9318 8.6967 12.5357Z" fill="#262626"/>
</svg>
